<svg xmlns="http://www.w3.org/2000/svg" viewBox="0 0 307.4 512"><path d="M128.5 360.6c-39.7-4.1-75.5-13.9-106.1-37.9-3.8-3-7.7-5.9-11.2-9.2-13.4-12.9-14.8-27.6-4.2-42.8 9.1-13 24.3-16.5 40.2-9 3.1 1.4 6 3.3 8.8 5.2 57.1 39.2 135.5 40.3 192.9 1.8 5.7-4.4 11.7-7.9 18.8-9.7 13.7-3.5 26.4 1.5 33.8 13.5 8.4 13.7 8.3 27-2.1 37.6-15.9 16.3-34.9 28-56.1 36.3-20 7.8-42 11.7-63.7 14.3 3.3 3.6 4.8 5.3 6.9 7.4 29.5 29.6 59.1 59.1 88.5 88.8 10 10.1 12.1 22.7 6.6 34.5-6 12.9-19.5 21.3-32.7 20.4-8.4-.6-14.9-4.8-20.7-10.6-22.2-22.4-44.9-44.4-66.7-67.2-6.3-6.6-9.4-5.4-15 .4-22.4 23-45.1 45.7-68 68.3-10.3 10.1-22.5 12-34.4 6.2-12.7-6.1-20.7-19.1-20.1-32.1.4-8.8 4.8-15.5 10.8-21.5 29.2-29.1 58.3-58.3 87.4-87.5 1.7-2.1 3.5-4.2 6.3-7.2z"/><path d="M152.7 259.2C81.9 259 23.8 200.3 24.2 129.3 24.6 57.6 82.7-.2 154.3 0c71.7.2 129.2 58.8 128.8 131.3-.4 70.7-58.9 128.1-130.4 127.9zm64.4-129.7c-.1-35.2-28.2-63.2-63.3-63.3-35.4 0-63.7 28.5-63.5 64 .3 35.1 28.5 62.9 63.8 62.8 35.1-.1 63.1-28.3 63-63.5z"/></svg>