<svg xmlns="http://www.w3.org/2000/svg" viewBox="0 0 512 292.1"><path d="M509.3 263.8c-.6-1.3-1.2-2.4-1.7-3.3-8.9-16-25.9-35.6-50.9-58.9l-.5-.5-.3-.3-.3-.3h-.3c-11.4-10.8-18.6-18.1-21.6-21.9-5.5-7.1-6.8-14.3-3.7-21.6 2.1-5.5 10.1-17.1 24-34.9 7.3-9.4 13.1-17 17.3-22.7 30.7-40.9 44.1-67 40-78.4l-1.6-2.7c-1.1-1.6-3.8-3.1-8.3-4.4-4.4-1.3-10.1-1.6-17.1-.7l-76.8.5c-1.2-.4-3-.4-5.3.1s-3.5.8-3.5.8l-1.3.7-1.1.8c-.9.5-1.9 1.5-2.9 2.8-1.1 1.3-1.9 2.9-2.7 4.7-8.4 21.5-17.9 41.5-28.5 60-6.6 11-12.6 20.6-18.1 28.7-5.5 8.1-10.1 14-13.9 17.9-3.7 3.8-7.1 6.9-10.1 9.2-3 2.3-5.3 3.3-6.9 2.9-1.6-.4-3.1-.7-4.5-1.1-2.5-1.6-4.5-3.8-6-6.5-1.5-2.8-2.5-6.2-3.1-10.4-.5-4.2-.8-7.8-.9-10.8-.1-3 0-7.3.1-12.8.2-5.5.3-9.2.3-11.2 0-6.8.1-14.1.4-22 .3-7.9.5-14.2.7-18.8.2-4.6.3-9.5.3-14.7s-.3-9.2-.9-12.1c-.6-2.9-1.6-5.8-2.8-8.5-1.2-2.8-3.1-4.9-5.5-6.4s-5.4-2.7-8.9-3.6C273 1.3 261 .1 246.4-.1c-33.1-.4-54.3 1.8-63.7 6.4-3.7 2-7.1 4.6-10.1 8-3.2 3.9-3.6 6-1.3 6.4 10.7 1.6 18.2 5.4 22.7 11.5l1.6 3.2c1.2 2.3 2.5 6.4 3.7 12.3 1.2 5.9 2 12.4 2.4 19.5.9 13 .9 24.1 0 33.3-.9 9.2-1.7 16.4-2.5 21.6-.8 5.2-2 9.3-3.6 12.5-1.6 3.2-2.7 5.2-3.2 5.9-.5.7-1 1.2-1.3 1.3-2.3.9-4.7 1.3-7.2 1.3s-5.5-1.2-9.1-3.7c-3.6-2.5-7.2-5.9-11.1-10.3-3.8-4.4-8.1-10.4-12.9-18.3-4.8-7.8-9.8-17.1-14.9-27.7l-4.3-7.7c-2.7-5-6.3-12.2-10.9-21.7-4.6-9.5-8.7-18.7-12.3-27.6-1.4-3.7-3.6-6.6-6.4-8.5l-1.3-.8c-.9-.7-2.3-1.5-4.3-2.3-2-.8-4-1.4-6.1-1.7l-73 .5c-7.5 0-12.5 1.7-15.2 5.1L.8 20c-.5.9-.8 2.3-.8 4.3s.5 4.4 1.6 7.2c10.7 25 22.3 49.2 34.8 72.5s23.4 42 32.7 56.2c9.2 14.2 18.7 27.6 28.3 40.3 9.6 12.6 16 20.7 19.1 24.3 3.1 3.6 5.6 6.2 7.3 8l6.7 6.4c4.3 4.3 10.5 9.4 18.8 15.3 8.3 6 17.4 11.8 27.5 17.6 10 5.8 21.7 10.5 35.1 14.1 13.3 3.6 26.3 5.1 38.9 4.4h30.7c6.2-.5 10.9-2.5 14.1-5.9l1.1-1.3c.7-1.1 1.4-2.7 2-4.9.6-2.2.9-4.7.9-7.3-.2-7.6.4-14.5 1.7-20.7 1.3-6.1 2.8-10.7 4.5-13.9 1.7-3.1 3.6-5.7 5.7-7.9 2.1-2.1 3.6-3.4 4.5-3.9.9-.4 1.6-.8 2.1-.9 4.3-1.4 9.3 0 15.1 4.1 5.8 4.2 11.2 9.3 16.3 15.5 5.1 6.1 11.2 13 18.3 20.7 7.1 7.6 13.3 13.3 18.7 17.1l5.3 3.2c3.6 2.1 8.2 4.1 13.9 5.9 5.7 1.8 10.7 2.2 14.9 1.3l68.2-1.1c6.7 0 12-1.1 15.7-3.3 3.7-2.2 6-4.7 6.7-7.3.7-2.7.8-5.7.1-9.1-.8-3.4-1.4-5.8-2-7.1z"/></svg>