<svg xmlns="http://www.w3.org/2000/svg" viewBox="0 0 426.7 512"><path d="M360.9 374.5h-28.1l.1-16.3c0-7.3 6-13.2 13.2-13.2h1.8c7.3 0 13.3 5.9 13.3 13.2l-.3 16.3zm-105.4-35c-7.1 0-13 4.8-13 10.7v79.4c0 5.9 5.8 10.6 13 10.6s13-4.8 13-10.6v-79.4c0-5.9-5.8-10.7-13-10.7zm171.2-44.4v151c0 36.2-31.4 65.9-69.8 65.9H69.8C31.4 512 0 482.4 0 446.1v-151c0-36.2 31.4-65.9 69.8-65.9h287.1c38.4.1 69.8 29.7 69.8 65.9zM89 462.5V303.4h35.6v-23.6l-94.9-.1v23.2l29.6.1v159.5H89zm106.6-135.3H166v84.9c0 12.3.7 18.4 0 20.6-2.4 6.6-13.3 13.6-17.5.7-.7-2.3-.1-9.1-.1-20.7l-.1-85.5h-29.5l.1 84.2c0 12.9-.3 22.5.1 26.9.7 7.7.5 16.7 7.6 21.9 13.3 9.6 38.9-1.4 45.3-15.2l-.1 17.5h23.8V327.2zm94.9 97.2l-.1-70.7c0-26.9-20.2-43.1-47.5-21.3l.1-52.6h-29.6l-.1 181.4 24.4-.4 2.2-11.3c31.1 28.8 50.7 9.2 50.6-25.1zm92.9-9.3l-22.2.1c0 .9 0 1.9-.1 3v12.4c0 6.6-5.5 12.1-12.2 12.1h-4.4c-6.7 0-12.2-5.4-12.2-12.1V398h50.9v-19.2c0-14-.4-28-1.5-36-3.6-25.3-39.2-29.4-57.2-16.4-5.6 4.1-9.9 9.5-12.4 16.8-2.5 7.3-3.8 17.2-3.8 29.9v42.2c.1 69.9 85.2 60 75.1-.2zM269.3 186.2c1.5 3.7 3.9 6.7 7.1 9 3.2 2.2 7.3 3.4 12.1 3.4 4.3 0 8.1-1.2 11.4-3.5 3.3-2.4 6.1-5.9 8.3-10.6l-.6 11.6h33.1V55.4h-26v109.5c0 5.9-4.9 10.8-10.8 10.8s-10.8-4.9-10.8-10.8V55.4h-27.2v94.9c0 12.1.2 20.1.6 24.2.3 4 1.2 7.9 2.8 11.7zm-100.2-79.4c0-13.5 1.1-24 3.4-31.6 2.3-7.6 6.3-13.7 12.2-18.2 5.8-4.6 13.3-6.9 22.4-6.9 7.7 0 14.2 1.5 19.7 4.4 5.5 3 9.7 6.8 12.7 11.5 3 4.8 5 9.6 6.1 14.6 1.1 5.1 1.7 12.7 1.7 23v35.6c0 13-.5 22.6-1.5 28.7-1 6.1-3.2 11.8-6.5 17.1-3.3 5.3-7.6 9.2-12.7 11.7-5.2 2.5-11.2 3.8-17.9 3.8-7.5 0-13.9-1-19.1-3.2-5.3-2.2-9.3-5.4-12.2-9.8-2.9-4.3-5-9.6-6.2-15.8-1.2-6.1-1.8-15.4-1.8-27.7l-.3-37.2zm25.9 55.8c0 8 5.9 14.5 13.1 14.5 7.2 0 13.1-6.5 13.1-14.5V87.8c0-8-5.9-14.5-13.1-14.5-7.2 0-13.1 6.5-13.1 14.5v74.8zm-91.6 37.8h31.2V92.5L171.5.1h-34.1l-19.6 68.6L97.9 0H64.2l39.2 92.6v107.8z"/></svg>