<svg xmlns="http://www.w3.org/2000/svg"><symbol id="icon-social-instagram" viewBox="0 0 512 512"><path d="M370.7 0H141.3C63.4 0 0 63.4 0 141.3v229.4C0 448.6 63.4 512 141.3 512h229.4c77.9 0 141.3-63.4 141.3-141.3V141.3C512 63.4 448.6 0 370.7 0zm95.9 370.7c0 52.9-43 95.9-95.9 95.9H141.3c-52.9 0-95.9-43-95.9-95.9V141.3c0-52.9 43-95.9 95.9-95.9h229.4c52.9 0 95.9 43 95.9 95.9v229.4z"/><path d="M256 124.1c-72.7 0-131.9 59.2-131.9 131.9S183.3 387.9 256 387.9 387.9 328.7 387.9 256 328.7 124.1 256 124.1zm0 218.4c-47.7 0-86.5-38.8-86.5-86.5s38.8-86.5 86.5-86.5 86.5 38.8 86.5 86.5-38.8 86.5-86.5 86.5zM393.5 85.6c-8.8 0-17.4 3.5-23.5 9.8-6.2 6.2-9.8 14.8-9.8 23.6s3.6 17.4 9.8 23.6c6.2 6.2 14.8 9.8 23.5 9.8 8.8 0 17.4-3.6 23.6-9.8 6.2-6.2 9.8-14.8 9.8-23.6s-3.5-17.4-9.8-23.6c-6.3-6.3-14.9-9.8-23.6-9.8z"/></symbol><symbol id="icon-social-odnoklassniki" viewBox="0 0 307.4 512"><path d="M128.5 360.6c-39.7-4.1-75.5-13.9-106.1-37.9-3.8-3-7.7-5.9-11.2-9.2-13.4-12.9-14.8-27.6-4.2-42.8 9.1-13 24.3-16.5 40.2-9 3.1 1.4 6 3.3 8.8 5.2 57.1 39.2 135.5 40.3 192.9 1.8 5.7-4.4 11.7-7.9 18.8-9.7 13.7-3.5 26.4 1.5 33.8 13.5 8.4 13.7 8.3 27-2.1 37.6-15.9 16.3-34.9 28-56.1 36.3-20 7.8-42 11.7-63.7 14.3 3.3 3.6 4.8 5.3 6.9 7.4 29.5 29.6 59.1 59.1 88.5 88.8 10 10.1 12.1 22.7 6.6 34.5-6 12.9-19.5 21.3-32.7 20.4-8.4-.6-14.9-4.8-20.7-10.6-22.2-22.4-44.9-44.4-66.7-67.2-6.3-6.6-9.4-5.4-15 .4-22.4 23-45.1 45.7-68 68.3-10.3 10.1-22.5 12-34.4 6.2-12.7-6.1-20.7-19.1-20.1-32.1.4-8.8 4.8-15.5 10.8-21.5 29.2-29.1 58.3-58.3 87.4-87.5 1.7-2.1 3.5-4.2 6.3-7.2z"/><path d="M152.7 259.2C81.9 259 23.8 200.3 24.2 129.3 24.6 57.6 82.7-.2 154.3 0c71.7.2 129.2 58.8 128.8 131.3-.4 70.7-58.9 128.1-130.4 127.9zm64.4-129.7c-.1-35.2-28.2-63.2-63.3-63.3-35.4 0-63.7 28.5-63.5 64 .3 35.1 28.5 62.9 63.8 62.8 35.1-.1 63.1-28.3 63-63.5z"/></symbol><symbol id="icon-social-vk" viewBox="0 0 512 292.1"><path d="M509.3 263.8c-.6-1.3-1.2-2.4-1.7-3.3-8.9-16-25.9-35.6-50.9-58.9l-.5-.5-.3-.3-.3-.3h-.3c-11.4-10.8-18.6-18.1-21.6-21.9-5.5-7.1-6.8-14.3-3.7-21.6 2.1-5.5 10.1-17.1 24-34.9 7.3-9.4 13.1-17 17.3-22.7 30.7-40.9 44.1-67 40-78.4l-1.6-2.7c-1.1-1.6-3.8-3.1-8.3-4.4-4.4-1.3-10.1-1.6-17.1-.7l-76.8.5c-1.2-.4-3-.4-5.3.1s-3.5.8-3.5.8l-1.3.7-1.1.8c-.9.5-1.9 1.5-2.9 2.8-1.1 1.3-1.9 2.9-2.7 4.7-8.4 21.5-17.9 41.5-28.5 60-6.6 11-12.6 20.6-18.1 28.7-5.5 8.1-10.1 14-13.9 17.9-3.7 3.8-7.1 6.9-10.1 9.2-3 2.3-5.3 3.3-6.9 2.9-1.6-.4-3.1-.7-4.5-1.1-2.5-1.6-4.5-3.8-6-6.5-1.5-2.8-2.5-6.2-3.1-10.4-.5-4.2-.8-7.8-.9-10.8-.1-3 0-7.3.1-12.8.2-5.5.3-9.2.3-11.2 0-6.8.1-14.1.4-22 .3-7.9.5-14.2.7-18.8.2-4.6.3-9.5.3-14.7s-.3-9.2-.9-12.1c-.6-2.9-1.6-5.8-2.8-8.5-1.2-2.8-3.1-4.9-5.5-6.4s-5.4-2.7-8.9-3.6C273 1.3 261 .1 246.4-.1c-33.1-.4-54.3 1.8-63.7 6.4-3.7 2-7.1 4.6-10.1 8-3.2 3.9-3.6 6-1.3 6.4 10.7 1.6 18.2 5.4 22.7 11.5l1.6 3.2c1.2 2.3 2.5 6.4 3.7 12.3 1.2 5.9 2 12.4 2.4 19.5.9 13 .9 24.1 0 33.3-.9 9.2-1.7 16.4-2.5 21.6-.8 5.2-2 9.3-3.6 12.5-1.6 3.2-2.7 5.2-3.2 5.9-.5.7-1 1.2-1.3 1.3-2.3.9-4.7 1.3-7.2 1.3s-5.5-1.2-9.1-3.7c-3.6-2.5-7.2-5.9-11.1-10.3-3.8-4.4-8.1-10.4-12.9-18.3-4.8-7.8-9.8-17.1-14.9-27.7l-4.3-7.7c-2.7-5-6.3-12.2-10.9-21.7-4.6-9.5-8.7-18.7-12.3-27.6-1.4-3.7-3.6-6.6-6.4-8.5l-1.3-.8c-.9-.7-2.3-1.5-4.3-2.3-2-.8-4-1.4-6.1-1.7l-73 .5c-7.5 0-12.5 1.7-15.2 5.1L.8 20c-.5.9-.8 2.3-.8 4.3s.5 4.4 1.6 7.2c10.7 25 22.3 49.2 34.8 72.5s23.4 42 32.7 56.2c9.2 14.2 18.7 27.6 28.3 40.3 9.6 12.6 16 20.7 19.1 24.3 3.1 3.6 5.6 6.2 7.3 8l6.7 6.4c4.3 4.3 10.5 9.4 18.8 15.3 8.3 6 17.4 11.8 27.5 17.6 10 5.8 21.7 10.5 35.1 14.1 13.3 3.6 26.3 5.1 38.9 4.4h30.7c6.2-.5 10.9-2.5 14.1-5.9l1.1-1.3c.7-1.1 1.4-2.7 2-4.9.6-2.2.9-4.7.9-7.3-.2-7.6.4-14.5 1.7-20.7 1.3-6.1 2.8-10.7 4.5-13.9 1.7-3.1 3.6-5.7 5.7-7.9 2.1-2.1 3.6-3.4 4.5-3.9.9-.4 1.6-.8 2.1-.9 4.3-1.4 9.3 0 15.1 4.1 5.8 4.2 11.2 9.3 16.3 15.5 5.1 6.1 11.2 13 18.3 20.7 7.1 7.6 13.3 13.3 18.7 17.1l5.3 3.2c3.6 2.1 8.2 4.1 13.9 5.9 5.7 1.8 10.7 2.2 14.9 1.3l68.2-1.1c6.7 0 12-1.1 15.7-3.3 3.7-2.2 6-4.7 6.7-7.3.7-2.7.8-5.7.1-9.1-.8-3.4-1.4-5.8-2-7.1z"/></symbol><symbol id="icon-social-youtube" viewBox="0 0 426.7 512"><path d="M360.9 374.5h-28.1l.1-16.3c0-7.3 6-13.2 13.2-13.2h1.8c7.3 0 13.3 5.9 13.3 13.2l-.3 16.3zm-105.4-35c-7.1 0-13 4.8-13 10.7v79.4c0 5.9 5.8 10.6 13 10.6s13-4.8 13-10.6v-79.4c0-5.9-5.8-10.7-13-10.7zm171.2-44.4v151c0 36.2-31.4 65.9-69.8 65.9H69.8C31.4 512 0 482.4 0 446.1v-151c0-36.2 31.4-65.9 69.8-65.9h287.1c38.4.1 69.8 29.7 69.8 65.9zM89 462.5V303.4h35.6v-23.6l-94.9-.1v23.2l29.6.1v159.5H89zm106.6-135.3H166v84.9c0 12.3.7 18.4 0 20.6-2.4 6.6-13.3 13.6-17.5.7-.7-2.3-.1-9.1-.1-20.7l-.1-85.5h-29.5l.1 84.2c0 12.9-.3 22.5.1 26.9.7 7.7.5 16.7 7.6 21.9 13.3 9.6 38.9-1.4 45.3-15.2l-.1 17.5h23.8V327.2zm94.9 97.2l-.1-70.7c0-26.9-20.2-43.1-47.5-21.3l.1-52.6h-29.6l-.1 181.4 24.4-.4 2.2-11.3c31.1 28.8 50.7 9.2 50.6-25.1zm92.9-9.3l-22.2.1c0 .9 0 1.9-.1 3v12.4c0 6.6-5.5 12.1-12.2 12.1h-4.4c-6.7 0-12.2-5.4-12.2-12.1V398h50.9v-19.2c0-14-.4-28-1.5-36-3.6-25.3-39.2-29.4-57.2-16.4-5.6 4.1-9.9 9.5-12.4 16.8-2.5 7.3-3.8 17.2-3.8 29.9v42.2c.1 69.9 85.2 60 75.1-.2zM269.3 186.2c1.5 3.7 3.9 6.7 7.1 9 3.2 2.2 7.3 3.4 12.1 3.4 4.3 0 8.1-1.2 11.4-3.5 3.3-2.4 6.1-5.9 8.3-10.6l-.6 11.6h33.1V55.4h-26v109.5c0 5.9-4.9 10.8-10.8 10.8s-10.8-4.9-10.8-10.8V55.4h-27.2v94.9c0 12.1.2 20.1.6 24.2.3 4 1.2 7.9 2.8 11.7zm-100.2-79.4c0-13.5 1.1-24 3.4-31.6 2.3-7.6 6.3-13.7 12.2-18.2 5.8-4.6 13.3-6.9 22.4-6.9 7.7 0 14.2 1.5 19.7 4.4 5.5 3 9.7 6.8 12.7 11.5 3 4.8 5 9.6 6.1 14.6 1.1 5.1 1.7 12.7 1.7 23v35.6c0 13-.5 22.6-1.5 28.7-1 6.1-3.2 11.8-6.5 17.1-3.3 5.3-7.6 9.2-12.7 11.7-5.2 2.5-11.2 3.8-17.9 3.8-7.5 0-13.9-1-19.1-3.2-5.3-2.2-9.3-5.4-12.2-9.8-2.9-4.3-5-9.6-6.2-15.8-1.2-6.1-1.8-15.4-1.8-27.7l-.3-37.2zm25.9 55.8c0 8 5.9 14.5 13.1 14.5 7.2 0 13.1-6.5 13.1-14.5V87.8c0-8-5.9-14.5-13.1-14.5-7.2 0-13.1 6.5-13.1 14.5v74.8zm-91.6 37.8h31.2V92.5L171.5.1h-34.1l-19.6 68.6L97.9 0H64.2l39.2 92.6v107.8z"/></symbol></svg>